PathFileType	4	(X/Y/Z)	D:\TRACE\v60_Jaco2_6-2-23\BothDRS_Motion1_4-platform.trc
DataRate	CameraRate	NumFrames	NumMarkers	Units	OrigDataRate	OrigDataStartFrame	OrigNumFrames
100.00	100.00	      47	5	mm	100.00	5235	      6979
Frame#	Time	Left_Front			Right_Front			Left_Aft			Right_Aft			Post			
		X1	Y1	Z1	X2	Y2	Z2	X3	Y3	Z3	X4	Y4	Z4	X5	Y5	Z5	

5235	52.340	-846.72449	-14.83427	-643.80933	723.42426	-13.34153	-649.08722	-754.68933	24.11449	490.87350	687.62708	23.64405	500.44565	-60.50668	1272.47424	-1011.31763	
5236	52.350	-847.30200	-15.03667	-643.85602	722.95068	-13.68393	-649.09564	-755.10626	24.01210	490.74927	687.29224	23.80929	500.42542	-61.00090	1272.23218	-1011.48730	
5237	52.360	-847.64703	-14.99162	-643.96692	722.30469	-13.60548	-649.18030	-755.51636	23.90918	490.62793	687.02277	23.90455	500.40891	-61.51028	1271.90906	-1012.24408	
5238	52.370	-848.02350	-14.85070	-643.87518	721.81006	-13.69587	-649.27393	-756.07892	24.02804	490.53552	686.66022	23.91623	500.36670	-61.84033	1271.81274	-1012.83026	
5239	52.380	-848.49738	-15.03265	-643.91974	721.45709	-13.76772	-649.17828	-756.22913	23.76819	490.56879	686.08130	24.02895	500.37799	-62.23396	1271.77319	-1013.58087	
5240	52.390	-848.70569	-15.13768	-643.67999	721.20343	-13.78094	-649.18549	-756.81641	24.24417	490.49942	685.27722	24.02560	500.35144	-62.64825	1271.48010	-1014.51495	
5241	52.400	-849.17401	-15.39407	-643.91748	720.75568	-14.03692	-649.28113	-757.08417	24.18715	490.49295	685.16425	23.90948	500.10382	-62.77352	1271.21887	-1015.09906	
5242	52.410	-849.40271	-15.56646	-644.08612	720.49451	-14.23872	-649.26691	-757.27026	24.11357	490.45309	684.86768	24.09738	500.15186	-62.84832	1271.16663	-1015.16943	
5243	52.420	-849.54547	-15.60882	-644.22516	720.26678	-14.24098	-649.31305	-757.80566	24.50005	490.60483	684.77649	24.21038	500.13803	-63.08896	1271.00928	-1015.52686	
5244	52.430	-849.77026	-15.59865	-644.14972	720.06354	-14.16952	-649.21869	-757.89252	24.47870	490.51010	684.60431	24.35807	500.15442	-64.12281	1270.80896	-1016.07202	
5245	52.440	-850.11096	-15.54702	-644.07159	719.91931	-14.20940	-649.23468	-758.04431	24.61304	490.46912	684.33984	24.38579	500.10126	-64.27169	1270.65100	-1016.23285	
5246	52.450	-850.43323	-15.63064	-644.03894	719.68268	-14.42855	-649.24658	-758.33624	24.63457	490.49307	683.90674	24.30581	500.09695	-64.43444	1270.61938	-1016.15240	
5247	52.460	-850.62903	-15.93317	-644.17163	719.34125	-14.74796	-649.37866	-758.48767	24.66036	490.47189	683.50745	24.28108	500.11172	-64.34846	1270.52600	-1015.89313	
5248	52.470	-850.75378	-16.09198	-644.21906	719.16138	-14.88064	-649.39252	-758.61963	24.68780	490.48642	683.58588	24.46564	499.98026	-64.57340	1270.38208	-1015.60162	
5249	52.480	-850.83502	-16.21293	-644.24377	719.10059	-14.98250	-649.42596	-758.79059	24.81743	490.47458	683.51758	24.70232	500.01169	-64.80115	1270.26343	-1015.18585	
5250	52.490	-850.93646	-16.19440	-644.05450	719.03918	-15.01825	-649.36224	-758.82928	24.95029	490.45895	683.40393	24.81505	500.01096	-64.87634	1270.17493	-1014.95294	
5251	52.500	-851.12201	-16.26952	-644.02997	718.93042	-15.08544	-649.33984	-758.92664	25.03782	490.46521	683.31799	24.73078	499.97021	-64.94905	1270.06494	-1015.05225	
5252	52.510	-851.18488	-16.51192	-644.07269	718.91925	-15.25365	-649.42285	-758.99573	25.08034	490.44275	683.13336	24.71104	499.92410	-64.96189	1269.74573	-1015.46838	
5253	52.520	-851.12714	-16.76183	-644.17511	718.93018	-15.38712	-649.43524	-758.98761	25.04639	490.37921	682.99976	24.86396	499.92938	-64.90215	1269.47925	-1016.01074	
5254	52.530	-851.05164	-16.72021	-644.32074	718.91876	-15.46537	-649.44922	-759.00720	25.08407	490.35959	683.29803	24.95129	499.94226	-65.04025	1269.45593	-1016.31555	
5255	52.540	-851.00677	-16.63512	-644.31482	718.99335	-15.44633	-649.43176	-758.96869	25.17443	490.35083	683.40210	25.07438	499.97626	-65.00015	1269.48596	-1016.72034	
5256	52.550	-851.07251	-16.55012	-644.16553	718.96222	-15.57839	-649.46368	-758.96381	25.24795	490.30127	683.19775	25.10931	499.88629	-64.80553	1269.37939	-1017.16351	
5257	52.560	-851.17200	-16.72749	-644.04510	718.85278	-15.66553	-649.50043	-758.95166	25.25563	490.31650	683.02753	25.04444	499.82623	-64.66806	1269.27234	-1017.81421	
5258	52.570	-851.14990	-16.93390	-644.02588	718.77637	-15.81566	-649.54327	-758.99738	25.26775	490.27213	683.02246	24.98354	499.85269	-64.67926	1269.17969	-1018.17224	
5259	52.580	-851.07935	-17.11535	-644.28979	718.72028	-15.95433	-649.62024	-759.01416	25.25625	490.24695	683.25415	25.04751	499.87054	-64.74767	1269.12671	-1018.23059	
5260	52.590	-851.08710	-16.98602	-644.34705	718.82715	-15.82263	-649.64648	-758.98981	25.27323	490.25891	683.36395	25.17707	499.82581	-64.71114	1269.06616	-1018.23236	
5261	52.600	-851.08691	-16.90266	-644.26764	718.94849	-15.73469	-649.57898	-758.97021	25.35269	490.24106	683.34698	25.23668	499.77686	-64.81380	1268.99951	-1018.28003	
5262	52.610	-851.02124	-17.02047	-644.11273	719.12396	-15.72426	-649.53040	-758.90228	25.44172	490.22388	683.30042	25.14115	499.75162	-64.72425	1268.99451	-1018.17401	
5263	52.620	-850.88275	-17.24125	-644.19165	719.26733	-15.84111	-649.55316	-758.64014	25.41788	490.18604	683.40918	25.17964	499.78082	-64.64105	1268.91895	-1018.09851	
5264	52.630	-850.30090	-17.36872	-644.24066	719.41931	-15.95469	-649.56219	-758.35059	25.39041	490.14063	683.97076	25.30812	499.76321	-64.34926	1268.92468	-1017.75385	
5265	52.640	-849.85651	-17.37756	-644.25134	719.66412	-15.97342	-649.59467	-757.89673	25.28541	490.13892	684.40466	25.43097	499.76227	-63.90164	1268.86475	-1017.24878	
5266	52.650	-849.54541	-17.22583	-644.37610	719.97504	-15.99391	-649.47180	-758.04980	25.91465	489.56195	684.69141	25.57711	499.79886	-63.64818	1268.74377	-1017.02209	
5267	52.660	-849.42499	-17.04587	-644.20728	720.12463	-15.91951	-649.48505	-757.69928	25.76954	489.80081	684.93530	25.52663	499.70465	-63.34948	1268.64160	-1017.10278	
5268	52.670	-849.35626	-17.08402	-644.18286	720.47882	-15.94349	-649.45789	-757.50867	25.86323	489.88110	684.98358	25.39546	499.73004	-62.98200	1268.53552	-1017.30188	
5269	52.680	-849.16229	-17.26384	-644.16083	720.85822	-16.44562	-649.58173	-757.35797	25.75850	489.97333	685.21802	25.37464	499.70807	-62.86766	1268.54858	-1017.38910	
5270	52.690	-848.78638	-17.50032	-644.24158	721.10809	-16.35602	-649.60480	-757.10309	25.87410	489.93198	685.50812	25.30978	499.74271	-62.55341	1268.55103	-1017.55817	
5271	52.700	-848.38104	-17.38512	-644.22284	721.47076	-16.23715	-649.56250	-756.66559	25.86115	489.92801	685.80994	25.28250	499.75076	-62.18842	1268.46802	-1017.59589	
5272	52.710	-848.14642	-17.23769	-644.01910	721.89545	-16.31874	-649.42944	-756.00220	25.41260	490.22324	686.32965	25.29186	499.81589	-61.91965	1268.67236	-1017.72614	
5273	52.720	-847.83795	-17.25020	-644.16864	722.20367	-16.28856	-649.41809	-755.71545	25.29745	490.23328	686.70563	25.24767	499.81552	-61.52074	1268.73706	-1018.04736	
5274	52.730	-847.41559	-17.39084	-644.05933	723.10938	-15.92396	-649.18372	-755.26709	25.39314	490.27206	686.98529	25.20791	499.73334	-61.05025	1268.65820	-1018.22864	
5275	52.740	-846.95416	-17.33925	-644.13507	723.54395	-16.00585	-649.21594	-754.84778	25.39540	490.21384	687.41345	25.40078	499.66177	-60.40559	1268.57251	-1018.21857	
5276	52.750	-846.42255	-17.47963	-644.21918	724.01379	-15.94436	-649.13867	-754.53833	25.26914	490.17953	687.84583	25.42286	499.68475	-60.04100	1268.56860	-1018.20258	
5277	52.760	-845.83728	-17.26737	-644.48657	724.12964	-16.01082	-649.32043	-754.21649	25.35289	490.17502	688.04315	25.64755	499.95840	-59.83599	1268.63562	-1018.12292	
5278	52.770	-845.60187	-17.12876	-644.33667	724.49615	-16.02142	-649.29962	-753.64905	25.51285	490.11105	688.99237	25.60643	499.88776	-59.34953	1268.72473	-1017.91272	
5279	52.780	-845.20276	-17.03238	-644.12665	724.99835	-15.94785	-649.42749	-753.02325	25.54137	490.14786	689.55768	25.43873	499.87457	-58.93260	1268.73157	-1017.70752	
5280	52.790	-844.86902	-17.20412	-644.13409	725.65918	-15.81232	-649.50079	-752.57495	25.50632	490.14270	689.83832	25.39419	499.80869	-58.52775	1268.75720	-1017.44543	
5281	52.800	-844.29114	-17.13917	-644.32245	726.01178	-15.68715	-649.48669	-752.08679	25.42059	490.06128	690.16962	25.38870	499.80078	-58.00020	1268.90942	-1017.29846	
